<?xml version="1.0" encoding="UTF-8"?>
<svg xmlns="http://www.w3.org/2000/svg" width="840" height="736" viewBox="0 0 840 736">
  <rect width="100%" height="100%" fill="#F8FAFC"/>
  <text x="24" y="34" font-size="22" font-weight="700" fill="#0F172A">顧客サポート — カラー版</text>
  <text x="24" y="57" font-size="12" fill="#64748B">Customer support · 25 icons</text>
    <g transform="translate(0 76)">
      <rect x="8" y="8" width="152" height="116" rx="14" fill="#FFFFFF" stroke="#E5E7EB"/>
      <g transform="translate(60 22) scale(2)" fill="none" stroke-width="2" stroke-linecap="round" stroke-linejoin="round">
        <circle cx="12" cy="12" r="10" stroke="#1D4ED8" data-uui-role="primary"/>
        <path d="m4.93 4.93 4.24 4.24" stroke="#3B82F6" data-uui-role="accent"/>
        <path d="m14.83 9.17 4.24-4.24" stroke="#93C5FD" data-uui-role="secondary"/>
        <path d="m14.83 14.83 4.24 4.24" stroke="#3B82F6" data-uui-role="accent"/>
        <path d="m9.17 14.83-4.24 4.24" stroke="#93C5FD" data-uui-role="secondary"/>
        <circle cx="12" cy="12" r="4" stroke="#3B82F6" data-uui-role="accent"/>
      </g>
      <text x="84" y="91" text-anchor="middle" font-size="13" font-weight="600" fill="#111827">サポート窓口</text>
      <text x="84" y="110" text-anchor="middle" font-size="10" fill="#6B7280">UUI-0804 · life-buoy</text>
    </g>
    <g transform="translate(168 76)">
      <rect x="8" y="8" width="152" height="116" rx="14" fill="#FFFFFF" stroke="#E5E7EB"/>
      <g transform="translate(60 22) scale(2)" fill="none" stroke-width="2" stroke-linecap="round" stroke-linejoin="round">
        <path d="M12 6V2H8" stroke="#1D4ED8" data-uui-role="primary"/>
        <path d="M15 11v2" stroke="#3B82F6" data-uui-role="accent"/>
        <path d="M2 12h2" stroke="#93C5FD" data-uui-role="secondary"/>
        <path d="M20 12h2" stroke="#3B82F6" data-uui-role="accent"/>
        <path d="M20 16a2 2 0 0 1-2 2H8.828a2 2 0 0 0-1.414.586l-2.202 2.202A.71.71 0 0 1 4 20.286V8a2 2 0 0 1 2-2h12a2 2 0 0 1 2 2z" stroke="#93C5FD" data-uui-role="secondary"/>
        <path d="M9 11v2" stroke="#3B82F6" data-uui-role="accent"/>
      </g>
      <text x="84" y="91" text-anchor="middle" font-size="13" font-weight="600" fill="#111827">自動応答</text>
      <text x="84" y="110" text-anchor="middle" font-size="10" fill="#6B7280">UUI-0805 · bot-message-square</text>
    </g>
    <g transform="translate(336 76)">
      <rect x="8" y="8" width="152" height="116" rx="14" fill="#FFFFFF" stroke="#E5E7EB"/>
      <g transform="translate(60 22) scale(2)" fill="none" stroke-width="2" stroke-linecap="round" stroke-linejoin="round">
        <path d="M2.992 16.342a2 2 0 0 1 .094 1.167l-1.065 3.29a1 1 0 0 0 1.236 1.168l3.413-.998a2 2 0 0 1 1.099.092 10 10 0 1 0-4.777-4.719" stroke="#1D4ED8" data-uui-role="primary"/>
        <path d="M9.09 9a3 3 0 0 1 5.83 1c0 2-3 3-3 3" stroke="#3B82F6" data-uui-role="accent"/>
        <path d="M12 17h.01" stroke="#3B82F6" data-uui-role="accent"/>
      </g>
      <text x="84" y="91" text-anchor="middle" font-size="13" font-weight="600" fill="#111827">問い合わせ</text>
      <text x="84" y="110" text-anchor="middle" font-size="10" fill="#6B7280">UUI-0806 · message-circle-question-mark</text>
    </g>
    <g transform="translate(504 76)">
      <rect x="8" y="8" width="152" height="116" rx="14" fill="#FFFFFF" stroke="#E5E7EB"/>
      <g transform="translate(60 22) scale(2)" fill="none" stroke-width="2" stroke-linecap="round" stroke-linejoin="round">
        <path d="M2.992 16.342a2 2 0 0 1 .094 1.167l-1.065 3.29a1 1 0 0 0 1.236 1.168l3.413-.998a2 2 0 0 1 1.099.092 10 10 0 1 0-4.777-4.719" stroke="#1D4ED8" data-uui-role="primary"/>
        <path d="M12 8v4" stroke="#3B82F6" data-uui-role="accent"/>
        <path d="M12 16h.01" stroke="#3B82F6" data-uui-role="accent"/>
      </g>
      <text x="84" y="91" text-anchor="middle" font-size="13" font-weight="600" fill="#111827">注意が必要な会話</text>
      <text x="84" y="110" text-anchor="middle" font-size="10" fill="#6B7280">UUI-0807 · message-circle-warning</text>
    </g>
    <g transform="translate(672 76)">
      <rect x="8" y="8" width="152" height="116" rx="14" fill="#FFFFFF" stroke="#E5E7EB"/>
      <g transform="translate(60 22) scale(2)" fill="none" stroke-width="2" stroke-linecap="round" stroke-linejoin="round">
        <path d="M2.992 16.342a2 2 0 0 1 .094 1.167l-1.065 3.29a1 1 0 0 0 1.236 1.168l3.413-.998a2 2 0 0 1 1.099.092 10 10 0 1 0-4.777-4.719" stroke="#1D4ED8" data-uui-role="primary"/>
        <path d="m9 12 2 2 4-4" stroke="#3B82F6" data-uui-role="accent"/>
      </g>
      <text x="84" y="91" text-anchor="middle" font-size="13" font-weight="600" fill="#111827">解決済み会話</text>
      <text x="84" y="110" text-anchor="middle" font-size="10" fill="#6B7280">UUI-0808 · message-circle-check</text>
    </g>
    <g transform="translate(0 208)">
      <rect x="8" y="8" width="152" height="116" rx="14" fill="#FFFFFF" stroke="#E5E7EB"/>
      <g transform="translate(60 22) scale(2)" fill="none" stroke-width="2" stroke-linecap="round" stroke-linejoin="round">
        <path d="M2.992 16.342a2 2 0 0 1 .094 1.167l-1.065 3.29a1 1 0 0 0 1.236 1.168l3.413-.998a2 2 0 0 1 1.099.092 10 10 0 1 0-4.777-4.719" stroke="#1D4ED8" data-uui-role="primary"/>
        <path d="m15 9-6 6" stroke="#3B82F6" data-uui-role="accent"/>
        <path d="m9 9 6 6" stroke="#3B82F6" data-uui-role="accent"/>
      </g>
      <text x="84" y="91" text-anchor="middle" font-size="13" font-weight="600" fill="#111827">未解決会話</text>
      <text x="84" y="110" text-anchor="middle" font-size="10" fill="#6B7280">UUI-0809 · message-circle-x</text>
    </g>
    <g transform="translate(168 208)">
      <rect x="8" y="8" width="152" height="116" rx="14" fill="#FFFFFF" stroke="#E5E7EB"/>
      <g transform="translate(60 22) scale(2)" fill="none" stroke-width="2" stroke-linecap="round" stroke-linejoin="round">
        <path d="M2.992 16.342a2 2 0 0 1 .094 1.167l-1.065 3.29a1 1 0 0 0 1.236 1.168l3.413-.998a2 2 0 0 1 1.099.092 10 10 0 1 0-4.777-4.719" stroke="#1D4ED8" data-uui-role="primary"/>
        <path d="M8 12h.01" stroke="#3B82F6" data-uui-role="accent"/>
        <path d="M12 12h.01" stroke="#93C5FD" data-uui-role="secondary"/>
        <path d="M16 12h.01" stroke="#3B82F6" data-uui-role="accent"/>
      </g>
      <text x="84" y="91" text-anchor="middle" font-size="13" font-weight="600" fill="#111827">会話の続き</text>
      <text x="84" y="110" text-anchor="middle" font-size="10" fill="#6B7280">UUI-0810 · message-circle-more</text>
    </g>
    <g transform="translate(336 208)">
      <rect x="8" y="8" width="152" height="116" rx="14" fill="#FFFFFF" stroke="#E5E7EB"/>
      <g transform="translate(60 22) scale(2)" fill="none" stroke-width="2" stroke-linecap="round" stroke-linejoin="round">
        <path d="M2.992 16.342a2 2 0 0 1 .094 1.167l-1.065 3.29a1 1 0 0 0 1.236 1.168l3.413-.998a2 2 0 0 1 1.099.092 10 10 0 1 0-4.777-4.719" stroke="#1D4ED8" data-uui-role="primary"/>
        <path d="m10 15-3-3 3-3" stroke="#3B82F6" data-uui-role="accent"/>
        <path d="M7 12h8a2 2 0 0 1 2 2v1" stroke="#3B82F6" data-uui-role="accent"/>
      </g>
      <text x="84" y="91" text-anchor="middle" font-size="13" font-weight="600" fill="#111827">会話へ返信</text>
      <text x="84" y="110" text-anchor="middle" font-size="10" fill="#6B7280">UUI-0811 · message-circle-reply</text>
    </g>
    <g transform="translate(504 208)">
      <rect x="8" y="8" width="152" height="116" rx="14" fill="#FFFFFF" stroke="#E5E7EB"/>
      <g transform="translate(60 22) scale(2)" fill="none" stroke-width="2" stroke-linecap="round" stroke-linejoin="round">
        <path d="M10.1 2.182a10 10 0 0 1 3.8 0" stroke="#1D4ED8" data-uui-role="primary"/>
        <path d="M13.9 21.818a10 10 0 0 1-3.8 0" stroke="#3B82F6" data-uui-role="accent"/>
        <path d="M17.609 3.72a10 10 0 0 1 2.69 2.7" stroke="#93C5FD" data-uui-role="secondary"/>
        <path d="M2.182 13.9a10 10 0 0 1 0-3.8" stroke="#3B82F6" data-uui-role="accent"/>
        <path d="M20.28 17.61a10 10 0 0 1-2.7 2.69" stroke="#93C5FD" data-uui-role="secondary"/>
        <path d="M21.818 10.1a10 10 0 0 1 0 3.8" stroke="#3B82F6" data-uui-role="accent"/>
        <path d="M3.721 6.391a10 10 0 0 1 2.7-2.69" stroke="#93C5FD" data-uui-role="secondary"/>
        <path d="m6.163 21.117-2.906.85a1 1 0 0 1-1.236-1.169l.965-2.98" stroke="#3B82F6" data-uui-role="accent"/>
      </g>
      <text x="84" y="91" text-anchor="middle" font-size="13" font-weight="600" fill="#111827">保留中の会話</text>
      <text x="84" y="110" text-anchor="middle" font-size="10" fill="#6B7280">UUI-0812 · message-circle-dashed</text>
    </g>
    <g transform="translate(672 208)">
      <rect x="8" y="8" width="152" height="116" rx="14" fill="#FFFFFF" stroke="#E5E7EB"/>
      <g transform="translate(60 22) scale(2)" fill="none" stroke-width="2" stroke-linecap="round" stroke-linejoin="round">
        <path d="m2 2 20 20" stroke="#1D4ED8" data-uui-role="primary"/>
        <path d="M4.93 4.929a10 10 0 0 0-1.938 11.412 2 2 0 0 1 .094 1.167l-1.065 3.29a1 1 0 0 0 1.236 1.168l3.413-.998a2 2 0 0 1 1.099.092 10 10 0 0 0 11.302-1.989" stroke="#3B82F6" data-uui-role="accent"/>
        <path d="M8.35 2.69A10 10 0 0 1 21.3 15.65" stroke="#3B82F6" data-uui-role="accent"/>
      </g>
      <text x="84" y="91" text-anchor="middle" font-size="13" font-weight="600" fill="#111827">会話無効</text>
      <text x="84" y="110" text-anchor="middle" font-size="10" fill="#6B7280">UUI-0813 · message-circle-off</text>
    </g>
    <g transform="translate(0 340)">
      <rect x="8" y="8" width="152" height="116" rx="14" fill="#FFFFFF" stroke="#E5E7EB"/>
      <g transform="translate(60 22) scale(2)" fill="none" stroke-width="2" stroke-linecap="round" stroke-linejoin="round">
        <path d="M22 17a2 2 0 0 1-2 2H6.828a2 2 0 0 0-1.414.586l-2.202 2.202A.71.71 0 0 1 2 21.286V5a2 2 0 0 1 2-2h16a2 2 0 0 1 2 2z" stroke="#1D4ED8" data-uui-role="primary"/>
        <path d="M12 15h.01" stroke="#3B82F6" data-uui-role="accent"/>
        <path d="M12 7v4" stroke="#3B82F6" data-uui-role="accent"/>
      </g>
      <text x="84" y="91" text-anchor="middle" font-size="13" font-weight="600" fill="#111827">警告メッセージ</text>
      <text x="84" y="110" text-anchor="middle" font-size="10" fill="#6B7280">UUI-0814 · message-square-warning</text>
    </g>
    <g transform="translate(168 340)">
      <rect x="8" y="8" width="152" height="116" rx="14" fill="#FFFFFF" stroke="#E5E7EB"/>
      <g transform="translate(60 22) scale(2)" fill="none" stroke-width="2" stroke-linecap="round" stroke-linejoin="round">
        <path d="M22 17a2 2 0 0 1-2 2H6.828a2 2 0 0 0-1.414.586l-2.202 2.202A.7.7 0 0 1 2 21.286V5a2 2 0 0 1 2-2h16a2 2 0 0 1 2 2z" stroke="#1D4ED8" data-uui-role="primary"/>
        <path d="m9 11 2 2 4-4" stroke="#3B82F6" data-uui-role="accent"/>
      </g>
      <text x="84" y="91" text-anchor="middle" font-size="13" font-weight="600" fill="#111827">解決済みメッセージ</text>
      <text x="84" y="110" text-anchor="middle" font-size="10" fill="#6B7280">UUI-0815 · message-square-check</text>
    </g>
    <g transform="translate(336 340)">
      <rect x="8" y="8" width="152" height="116" rx="14" fill="#FFFFFF" stroke="#E5E7EB"/>
      <g transform="translate(60 22) scale(2)" fill="none" stroke-width="2" stroke-linecap="round" stroke-linejoin="round">
        <path d="M22 17a2 2 0 0 1-2 2H6.828a2 2 0 0 0-1.414.586l-2.202 2.202A.71.71 0 0 1 2 21.286V5a2 2 0 0 1 2-2h16a2 2 0 0 1 2 2z" stroke="#1D4ED8" data-uui-role="primary"/>
        <path d="m14.5 8.5-5 5" stroke="#3B82F6" data-uui-role="accent"/>
        <path d="m9.5 8.5 5 5" stroke="#3B82F6" data-uui-role="accent"/>
      </g>
      <text x="84" y="91" text-anchor="middle" font-size="13" font-weight="600" fill="#111827">失敗メッセージ</text>
      <text x="84" y="110" text-anchor="middle" font-size="10" fill="#6B7280">UUI-0816 · message-square-x</text>
    </g>
    <g transform="translate(504 340)">
      <rect x="8" y="8" width="152" height="116" rx="14" fill="#FFFFFF" stroke="#E5E7EB"/>
      <g transform="translate(60 22) scale(2)" fill="none" stroke-width="2" stroke-linecap="round" stroke-linejoin="round">
        <path d="M22 17a2 2 0 0 1-2 2H6.828a2 2 0 0 0-1.414.586l-2.202 2.202A.71.71 0 0 1 2 21.286V5a2 2 0 0 1 2-2h16a2 2 0 0 1 2 2z" stroke="#1D4ED8" data-uui-role="primary"/>
        <path d="M12 11h.01" stroke="#3B82F6" data-uui-role="accent"/>
        <path d="M16 11h.01" stroke="#93C5FD" data-uui-role="secondary"/>
        <path d="M8 11h.01" stroke="#3B82F6" data-uui-role="accent"/>
      </g>
      <text x="84" y="91" text-anchor="middle" font-size="13" font-weight="600" fill="#111827">追加メッセージ</text>
      <text x="84" y="110" text-anchor="middle" font-size="10" fill="#6B7280">UUI-0817 · message-square-more</text>
    </g>
    <g transform="translate(672 340)">
      <rect x="8" y="8" width="152" height="116" rx="14" fill="#FFFFFF" stroke="#E5E7EB"/>
      <g transform="translate(60 22) scale(2)" fill="none" stroke-width="2" stroke-linecap="round" stroke-linejoin="round">
        <path d="M22 17a2 2 0 0 1-2 2H6.828a2 2 0 0 0-1.414.586l-2.202 2.202A.71.71 0 0 1 2 21.286V5a2 2 0 0 1 2-2h16a2 2 0 0 1 2 2z" stroke="#1D4ED8" data-uui-role="primary"/>
        <path d="m10 8-3 3 3 3" stroke="#3B82F6" data-uui-role="accent"/>
        <path d="M17 14v-1a2 2 0 0 0-2-2H7" stroke="#3B82F6" data-uui-role="accent"/>
      </g>
      <text x="84" y="91" text-anchor="middle" font-size="13" font-weight="600" fill="#111827">メッセージ返信</text>
      <text x="84" y="110" text-anchor="middle" font-size="10" fill="#6B7280">UUI-0818 · message-square-reply</text>
    </g>
    <g transform="translate(0 472)">
      <rect x="8" y="8" width="152" height="116" rx="14" fill="#FFFFFF" stroke="#E5E7EB"/>
      <g transform="translate(60 22) scale(2)" fill="none" stroke-width="2" stroke-linecap="round" stroke-linejoin="round">
        <path d="M14 3h2" stroke="#1D4ED8" data-uui-role="primary"/>
        <path d="M16 19h-2" stroke="#3B82F6" data-uui-role="accent"/>
        <path d="M2 12v-2" stroke="#93C5FD" data-uui-role="secondary"/>
        <path d="M2 16v5.286a.71.71 0 0 0 1.212.502l1.149-1.149" stroke="#3B82F6" data-uui-role="accent"/>
        <path d="M20 19a2 2 0 0 0 2-2v-1" stroke="#93C5FD" data-uui-role="secondary"/>
        <path d="M22 10v2" stroke="#3B82F6" data-uui-role="accent"/>
        <path d="M22 6V5a2 2 0 0 0-2-2" stroke="#93C5FD" data-uui-role="secondary"/>
        <path d="M4 3a2 2 0 0 0-2 2v1" stroke="#3B82F6" data-uui-role="accent"/>
        <path d="M8 19h2" stroke="#93C5FD" data-uui-role="secondary"/>
        <path d="M8 3h2" stroke="#3B82F6" data-uui-role="accent"/>
      </g>
      <text x="84" y="91" text-anchor="middle" font-size="13" font-weight="600" fill="#111827">下書きメッセージ</text>
      <text x="84" y="110" text-anchor="middle" font-size="10" fill="#6B7280">UUI-0819 · message-square-dashed</text>
    </g>
    <g transform="translate(168 472)">
      <rect x="8" y="8" width="152" height="116" rx="14" fill="#FFFFFF" stroke="#E5E7EB"/>
      <g transform="translate(60 22) scale(2)" fill="none" stroke-width="2" stroke-linecap="round" stroke-linejoin="round">
        <path d="M19 19H6.828a2 2 0 0 0-1.414.586l-2.202 2.202A.7.7 0 0 1 2 21.286V5a2 2 0 0 1 1.184-1.826" stroke="#1D4ED8" data-uui-role="primary"/>
        <path d="m2 2 20 20" stroke="#3B82F6" data-uui-role="accent"/>
        <path d="M8.656 3H20a2 2 0 0 1 2 2v11.344" stroke="#3B82F6" data-uui-role="accent"/>
      </g>
      <text x="84" y="91" text-anchor="middle" font-size="13" font-weight="600" fill="#111827">メッセージ無効</text>
      <text x="84" y="110" text-anchor="middle" font-size="10" fill="#6B7280">UUI-0820 · message-square-off</text>
    </g>
    <g transform="translate(336 472)">
      <rect x="8" y="8" width="152" height="116" rx="14" fill="#FFFFFF" stroke="#E5E7EB"/>
      <g transform="translate(60 22) scale(2)" fill="none" stroke-width="2" stroke-linecap="round" stroke-linejoin="round">
        <path d="M14 14a2 2 0 0 0 2-2V8h-2" stroke="#1D4ED8" data-uui-role="primary"/>
        <path d="M22 17a2 2 0 0 1-2 2H6.828a2 2 0 0 0-1.414.586l-2.202 2.202A.71.71 0 0 1 2 21.286V5a2 2 0 0 1 2-2h16a2 2 0 0 1 2 2z" stroke="#3B82F6" data-uui-role="accent"/>
        <path d="M8 14a2 2 0 0 0 2-2V8H8" stroke="#3B82F6" data-uui-role="accent"/>
      </g>
      <text x="84" y="91" text-anchor="middle" font-size="13" font-weight="600" fill="#111827">引用回答</text>
      <text x="84" y="110" text-anchor="middle" font-size="10" fill="#6B7280">UUI-0821 · message-square-quote</text>
    </g>
    <g transform="translate(504 472)">
      <rect x="8" y="8" width="152" height="116" rx="14" fill="#FFFFFF" stroke="#E5E7EB"/>
      <g transform="translate(60 22) scale(2)" fill="none" stroke-width="2" stroke-linecap="round" stroke-linejoin="round">
        <path d="M22 17a2 2 0 0 1-2 2H6.828a2 2 0 0 0-1.414.586l-2.202 2.202A.71.71 0 0 1 2 21.286V5a2 2 0 0 1 2-2h16a2 2 0 0 1 2 2z" stroke="#1D4ED8" data-uui-role="primary"/>
        <path d="M7 11h10" stroke="#3B82F6" data-uui-role="accent"/>
        <path d="M7 15h6" stroke="#93C5FD" data-uui-role="secondary"/>
        <path d="M7 7h8" stroke="#3B82F6" data-uui-role="accent"/>
      </g>
      <text x="84" y="91" text-anchor="middle" font-size="13" font-weight="600" fill="#111827">文章回答</text>
      <text x="84" y="110" text-anchor="middle" font-size="10" fill="#6B7280">UUI-0822 · message-square-text</text>
    </g>
    <g transform="translate(672 472)">
      <rect x="8" y="8" width="152" height="116" rx="14" fill="#FFFFFF" stroke="#E5E7EB"/>
      <g transform="translate(60 22) scale(2)" fill="none" stroke-width="2" stroke-linecap="round" stroke-linejoin="round">
        <path d="M12.7 3H4a2 2 0 0 0-2 2v16.286a.71.71 0 0 0 1.212.502l2.202-2.202A2 2 0 0 1 6.828 19H20a2 2 0 0 0 2-2v-4.7" stroke="#1D4ED8" data-uui-role="primary"/>
        <circle cx="19" cy="6" r="3" stroke="#3B82F6" data-uui-role="accent"/>
      </g>
      <text x="84" y="91" text-anchor="middle" font-size="13" font-weight="600" fill="#111827">未読メッセージ</text>
      <text x="84" y="110" text-anchor="middle" font-size="10" fill="#6B7280">UUI-0823 · message-square-dot</text>
    </g>
    <g transform="translate(0 604)">
      <rect x="8" y="8" width="152" height="116" rx="14" fill="#FFFFFF" stroke="#E5E7EB"/>
      <g transform="translate(60 22) scale(2)" fill="none" stroke-width="2" stroke-linecap="round" stroke-linejoin="round">
        <path d="M14 6h8" stroke="#1D4ED8" data-uui-role="primary"/>
        <path d="m18 2 4 4-4 4" stroke="#3B82F6" data-uui-role="accent"/>
        <path d="M13.832 16.568a1 1 0 0 0 1.213-.303l.355-.465A2 2 0 0 1 17 15h3a2 2 0 0 1 2 2v3a2 2 0 0 1-2 2A18 18 0 0 1 2 4a2 2 0 0 1 2-2h3a2 2 0 0 1 2 2v3a2 2 0 0 1-.8 1.6l-.468.351a1 1 0 0 0-.292 1.233 14 14 0 0 0 6.392 6.384" stroke="#3B82F6" data-uui-role="accent"/>
      </g>
      <text x="84" y="91" text-anchor="middle" font-size="13" font-weight="600" fill="#111827">電話転送</text>
      <text x="84" y="110" text-anchor="middle" font-size="10" fill="#6B7280">UUI-0824 · phone-forwarded</text>
    </g>
    <g transform="translate(168 604)">
      <rect x="8" y="8" width="152" height="116" rx="14" fill="#FFFFFF" stroke="#E5E7EB"/>
      <g transform="translate(60 22) scale(2)" fill="none" stroke-width="2" stroke-linecap="round" stroke-linejoin="round">
        <path d="m16 2 6 6" stroke="#1D4ED8" data-uui-role="primary"/>
        <path d="m22 2-6 6" stroke="#3B82F6" data-uui-role="accent"/>
        <path d="M13.832 16.568a1 1 0 0 0 1.213-.303l.355-.465A2 2 0 0 1 17 15h3a2 2 0 0 1 2 2v3a2 2 0 0 1-2 2A18 18 0 0 1 2 4a2 2 0 0 1 2-2h3a2 2 0 0 1 2 2v3a2 2 0 0 1-.8 1.6l-.468.351a1 1 0 0 0-.292 1.233 14 14 0 0 0 6.392 6.384" stroke="#3B82F6" data-uui-role="accent"/>
      </g>
      <text x="84" y="91" text-anchor="middle" font-size="13" font-weight="600" fill="#111827">不在着信</text>
      <text x="84" y="110" text-anchor="middle" font-size="10" fill="#6B7280">UUI-0825 · phone-missed</text>
    </g>
    <g transform="translate(336 604)">
      <rect x="8" y="8" width="152" height="116" rx="14" fill="#FFFFFF" stroke="#E5E7EB"/>
      <g transform="translate(60 22) scale(2)" fill="none" stroke-width="2" stroke-linecap="round" stroke-linejoin="round">
        <path d="M10.1 13.9a14 14 0 0 0 3.732 2.668 1 1 0 0 0 1.213-.303l.355-.465A2 2 0 0 1 17 15h3a2 2 0 0 1 2 2v3a2 2 0 0 1-2 2 18 18 0 0 1-12.728-5.272" stroke="#1D4ED8" data-uui-role="primary"/>
        <path d="M22 2 2 22" stroke="#3B82F6" data-uui-role="accent"/>
        <path d="M4.76 13.582A18 18 0 0 1 2 4a2 2 0 0 1 2-2h3a2 2 0 0 1 2 2v3a2 2 0 0 1-.8 1.6l-.468.351a1 1 0 0 0-.292 1.233 14 14 0 0 0 .244.473" stroke="#3B82F6" data-uui-role="accent"/>
      </g>
      <text x="84" y="91" text-anchor="middle" font-size="13" font-weight="600" fill="#111827">電話受付停止</text>
      <text x="84" y="110" text-anchor="middle" font-size="10" fill="#6B7280">UUI-0826 · phone-off</text>
    </g>
    <g transform="translate(504 604)">
      <rect x="8" y="8" width="152" height="116" rx="14" fill="#FFFFFF" stroke="#E5E7EB"/>
      <g transform="translate(60 22) scale(2)" fill="none" stroke-width="2" stroke-linecap="round" stroke-linejoin="round">
        <path d="M22 10.5V6a2 2 0 0 0-2-2H4a2 2 0 0 0-2 2v12c0 1.1.9 2 2 2h12.5" stroke="#1D4ED8" data-uui-role="primary"/>
        <path d="m22 7-8.97 5.7a1.94 1.94 0 0 1-2.06 0L2 7" stroke="#3B82F6" data-uui-role="accent"/>
        <path d="M18 15.28c.2-.4.5-.8.9-1a2.1 2.1 0 0 1 2.6.4c.3.4.5.8.5 1.3 0 1.3-2 2-2 2" stroke="#93C5FD" data-uui-role="secondary"/>
        <path d="M20 22v.01" stroke="#3B82F6" data-uui-role="accent"/>
      </g>
      <text x="84" y="91" text-anchor="middle" font-size="13" font-weight="600" fill="#111827">メール問い合わせ</text>
      <text x="84" y="110" text-anchor="middle" font-size="10" fill="#6B7280">UUI-0827 · mail-question-mark</text>
    </g>
    <g transform="translate(672 604)">
      <rect x="8" y="8" width="152" height="116" rx="14" fill="#FFFFFF" stroke="#E5E7EB"/>
      <g transform="translate(60 22) scale(2)" fill="none" stroke-width="2" stroke-linecap="round" stroke-linejoin="round">
        <path d="M11 12h2a2 2 0 1 0 0-4h-3c-.6 0-1.1.2-1.4.6L3 14" stroke="#1D4ED8" data-uui-role="primary"/>
        <path d="m7 18 1.6-1.4c.3-.4.8-.6 1.4-.6h4c1.1 0 2.1-.4 2.8-1.2l4.6-4.4a2 2 0 0 0-2.75-2.91l-4.2 3.9" stroke="#3B82F6" data-uui-role="accent"/>
        <path d="m2 13 6 6" stroke="#3B82F6" data-uui-role="accent"/>
      </g>
      <text x="84" y="91" text-anchor="middle" font-size="13" font-weight="600" fill="#111827">支援</text>
      <text x="84" y="110" text-anchor="middle" font-size="10" fill="#6B7280">UUI-0828 · hand-helping</text>
    </g>
</svg>
